<?xml version="1.0" encoding="UTF-8" standalone="no"?>
<!DOCTYPE svg PUBLIC "-//W3C//DTD SVG 1.1//EN"
 "http://www.w3.org/Graphics/SVG/1.1/DTD/svg11.dtd">
<!-- Generated by graphviz version 2.38.0 (20140413.2041)
 -->
<!-- Title: models_diagram Pages: 1 -->
<svg width="372pt" height="297pt"
 viewBox="0.00 0.00 371.94 297.00" xmlns="http://www.w3.org/2000/svg" xmlns:xlink="http://www.w3.org/1999/xlink">
<g id="graph0" class="graph" transform="scale(1 1) rotate(0) translate(4 293)">
<title>models_diagram</title>
<polygon fill="none" stroke="none" points="-4,4 -4,-293 367.941,-293 367.941,4 -4,4"/>
<!-- _diagram_info -->
<g id="node1" class="node"><title>_diagram_info</title>
<text text-anchor="start" x="8" y="-274.6" font-family="Times,serif" font-size="13.00">Models diagram</text>
<text text-anchor="start" x="8" y="-261.6" font-family="Times,serif" font-size="13.00">Date: Aug 26 2016 &#45; 17:12</text>
<text text-anchor="start" x="8" y="-248.6" font-family="Times,serif" font-size="13.00">Migration version: 20140313192430</text>
<text text-anchor="start" x="8" y="-235.6" font-family="Times,serif" font-size="13.00">Generated by RailRoady 1.5.1</text>
<text text-anchor="start" x="8" y="-222.6" font-family="Times,serif" font-size="13.00">http://railroady.prestonlee.com</text>
</g>
<!-- Boat -->
<g id="node2" class="node"><title>Boat</title>
<ellipse fill="none" stroke="black" cx="262.688" cy="-162" rx="27" ry="18"/>
<text text-anchor="middle" x="262.688" y="-157.8" font-family="Times,serif" font-size="14.00">Boat</text>
</g>
<!-- BoatClassification -->
<g id="node3" class="node"><title>BoatClassification</title>
<ellipse fill="none" stroke="black" cx="262.688" cy="-18" rx="74.9121" ry="18"/>
<text text-anchor="middle" x="262.688" y="-13.8" font-family="Times,serif" font-size="14.00">BoatClassification</text>
</g>
<!-- Boat&#45;&gt;BoatClassification -->
<g id="edge1" class="edge"><title>Boat&#45;&gt;BoatClassification</title>
<path fill="none" stroke="#b08997" d="M249.585,-137.765C245.207,-128.761 240.886,-118.182 238.688,-108 235.312,-92.3602 235.312,-87.6398 238.688,-72 240.649,-62.9165 244.3,-53.5168 248.173,-45.2013"/>
<ellipse fill="none" stroke="#b08997" cx="251.413" cy="-141.351" rx="4.00002" ry="4.00002"/>
<polygon fill="#b08997" stroke="#b08997" points="248.284,-44.9771 256.764,-38.0238 250.509,-40.4993 252.734,-36.0215 252.734,-36.0215 252.734,-36.0215 250.509,-40.4993 248.704,-34.0192 248.284,-44.9771 248.284,-44.9771"/>
</g>
<!-- Classification -->
<g id="node5" class="node"><title>Classification</title>
<ellipse fill="none" stroke="black" cx="305.688" cy="-90" rx="58.0083" ry="18"/>
<text text-anchor="middle" x="305.688" y="-85.8" font-family="Times,serif" font-size="14.00">Classification</text>
</g>
<!-- Boat&#45;&gt;Classification -->
<g id="edge2" class="edge"><title>Boat&#45;&gt;Classification</title>
<path fill="none" stroke="#fe0d85" d="M277.753,-136.475C281.757,-129.957 286.089,-122.904 290.12,-116.343"/>
<polygon fill="#fe0d85" stroke="#fe0d85" points="277.679,-136.595 268.611,-142.761 275.062,-140.856 272.445,-145.116 272.445,-145.116 272.445,-145.116 275.062,-140.856 276.279,-147.471 277.679,-136.595 277.679,-136.595"/>
<polygon fill="#fe0d85" stroke="#fe0d85" points="290.135,-116.318 299.204,-110.153 292.752,-112.058 295.369,-107.797 295.369,-107.797 295.369,-107.797 292.752,-112.058 291.535,-105.442 290.135,-116.318 290.135,-116.318"/>
</g>
<!-- Captain -->
<g id="node4" class="node"><title>Captain</title>
<ellipse fill="none" stroke="black" cx="262.688" cy="-252.5" rx="37.7266" ry="18"/>
<text text-anchor="middle" x="262.688" y="-248.3" font-family="Times,serif" font-size="14.00">Captain</text>
</g>
<!-- Captain&#45;&gt;Boat -->
<g id="edge3" class="edge"><title>Captain&#45;&gt;Boat</title>
<path fill="none" stroke="#ec253e" d="M262.688,-226.189C262.688,-214.971 262.688,-201.752 262.688,-190.311"/>
<ellipse fill="none" stroke="#ec253e" cx="262.688" cy="-230.436" rx="4" ry="4"/>
<polygon fill="#ec253e" stroke="#ec253e" points="262.688,-190.011 267.188,-180.011 262.688,-185.011 262.688,-180.011 262.688,-180.011 262.688,-180.011 262.688,-185.011 258.188,-180.011 262.688,-190.011 262.688,-190.011"/>
</g>
<!-- Classification&#45;&gt;BoatClassification -->
<g id="edge4" class="edge"><title>Classification&#45;&gt;BoatClassification</title>
<path fill="none" stroke="#cce01b" d="M291.01,-65.1057C287.013,-58.5986 282.664,-51.5203 278.602,-44.9073"/>
<ellipse fill="none" stroke="#cce01b" cx="293.185" cy="-68.6466" rx="4.00002" ry="4.00002"/>
<polygon fill="#cce01b" stroke="#cce01b" points="278.534,-44.7961 277.134,-33.9199 275.917,-40.5357 273.3,-36.2753 273.3,-36.2753 273.3,-36.2753 275.917,-40.5357 269.465,-38.6307 278.534,-44.7961 278.534,-44.7961"/>
</g>
</g>
</svg>
