<?xml version="1.0" encoding="UTF-8" standalone="no"?>
<!DOCTYPE svg PUBLIC "-//W3C//DTD SVG 1.1//EN"
 "http://www.w3.org/Graphics/SVG/1.1/DTD/svg11.dtd">
<!-- Generated by graphviz version 2.38.0 (20140413.2041)
 -->
<!-- Title: models_diagram Pages: 1 -->
<svg width="414pt" height="520pt"
 viewBox="0.00 0.00 414.19 520.00" xmlns="http://www.w3.org/2000/svg" xmlns:xlink="http://www.w3.org/1999/xlink">
<g id="graph0" class="graph" transform="scale(1 1) rotate(0) translate(4 516)">
<title>models_diagram</title>
<polygon fill="none" stroke="none" points="-4,4 -4,-516 410.193,-516 410.193,4 -4,4"/>
<!-- _diagram_info -->
<g id="node1" class="node"><title>_diagram_info</title>
<text text-anchor="start" x="8" y="-483.6" font-family="Times,serif" font-size="13.00">Models diagram</text>
<text text-anchor="start" x="8" y="-470.6" font-family="Times,serif" font-size="13.00">Date: Aug 26 2016 &#45; 17:12</text>
<text text-anchor="start" x="8" y="-457.6" font-family="Times,serif" font-size="13.00">Migration version: 20140313192430</text>
<text text-anchor="start" x="8" y="-444.6" font-family="Times,serif" font-size="13.00">Generated by RailRoady 1.5.1</text>
<text text-anchor="start" x="8" y="-431.6" font-family="Times,serif" font-size="13.00">http://railroady.prestonlee.com</text>
</g>
<!-- Boat -->
<g id="node2" class="node"><title>Boat</title>
<path fill="none" stroke="black" d="M237.182,-260.5C237.182,-260.5 346.193,-260.5 346.193,-260.5 352.193,-260.5 358.193,-266.5 358.193,-272.5 358.193,-272.5 358.193,-362.5 358.193,-362.5 358.193,-368.5 352.193,-374.5 346.193,-374.5 346.193,-374.5 237.182,-374.5 237.182,-374.5 231.182,-374.5 225.182,-368.5 225.182,-362.5 225.182,-362.5 225.182,-272.5 225.182,-272.5 225.182,-266.5 231.182,-260.5 237.182,-260.5"/>
<text text-anchor="middle" x="291.688" y="-359.3" font-family="Times,serif" font-size="14.00">Boat</text>
<polyline fill="none" stroke="black" points="225.182,-352.5 358.193,-352.5 "/>
<text text-anchor="start" x="233.182" y="-337.3" font-family="Times,serif" font-size="14.00">id :INTEGER</text>
<text text-anchor="start" x="233.182" y="-323.3" font-family="Times,serif" font-size="14.00">name :varchar</text>
<text text-anchor="start" x="233.182" y="-309.3" font-family="Times,serif" font-size="14.00">length :integer</text>
<text text-anchor="start" x="233.182" y="-295.3" font-family="Times,serif" font-size="14.00">captain_id :integer</text>
<text text-anchor="start" x="233.182" y="-281.3" font-family="Times,serif" font-size="14.00">created_at :datetime</text>
<text text-anchor="start" x="233.182" y="-267.3" font-family="Times,serif" font-size="14.00">updated_at :datetime</text>
</g>
<!-- BoatClassification -->
<g id="node3" class="node"><title>BoatClassification</title>
<path fill="none" stroke="black" d="M227.065,-0.5C227.065,-0.5 356.31,-0.5 356.31,-0.5 362.31,-0.5 368.31,-6.5 368.31,-12.5 368.31,-12.5 368.31,-88.5 368.31,-88.5 368.31,-94.5 362.31,-100.5 356.31,-100.5 356.31,-100.5 227.065,-100.5 227.065,-100.5 221.065,-100.5 215.065,-94.5 215.065,-88.5 215.065,-88.5 215.065,-12.5 215.065,-12.5 215.065,-6.5 221.065,-0.5 227.065,-0.5"/>
<text text-anchor="middle" x="291.688" y="-85.3" font-family="Times,serif" font-size="14.00">BoatClassification</text>
<polyline fill="none" stroke="black" points="215.065,-78.5 368.31,-78.5 "/>
<text text-anchor="start" x="223.065" y="-63.3" font-family="Times,serif" font-size="14.00">id :INTEGER</text>
<text text-anchor="start" x="223.065" y="-49.3" font-family="Times,serif" font-size="14.00">boat_id :integer</text>
<text text-anchor="start" x="223.065" y="-35.3" font-family="Times,serif" font-size="14.00">classification_id :integer</text>
<text text-anchor="start" x="223.065" y="-21.3" font-family="Times,serif" font-size="14.00">created_at :datetime</text>
<text text-anchor="start" x="223.065" y="-7.3" font-family="Times,serif" font-size="14.00">updated_at :datetime</text>
</g>
<!-- Boat&#45;&gt;BoatClassification -->
<g id="edge1" class="edge"><title>Boat&#45;&gt;BoatClassification</title>
<path fill="none" stroke="#cef0a5" d="M269.674,-252.488C267.196,-243.036 265.07,-233.336 263.688,-224 258.025,-185.75 257.595,-175.184 263.688,-137 265.083,-128.259 267.232,-119.198 269.734,-110.387"/>
<ellipse fill="none" stroke="#cef0a5" cx="270.772" cy="-256.498" rx="4.00001" ry="4.00001"/>
<polygon fill="#cef0a5" stroke="#cef0a5" points="269.805,-110.151 276.995,-101.872 271.245,-105.363 272.686,-100.575 272.686,-100.575 272.686,-100.575 271.245,-105.363 268.377,-99.2785 269.805,-110.151 269.805,-110.151"/>
</g>
<!-- Classification -->
<g id="node5" class="node"><title>Classification</title>
<path fill="none" stroke="black" d="M285.182,-137.5C285.182,-137.5 394.193,-137.5 394.193,-137.5 400.193,-137.5 406.193,-143.5 406.193,-149.5 406.193,-149.5 406.193,-211.5 406.193,-211.5 406.193,-217.5 400.193,-223.5 394.193,-223.5 394.193,-223.5 285.182,-223.5 285.182,-223.5 279.182,-223.5 273.182,-217.5 273.182,-211.5 273.182,-211.5 273.182,-149.5 273.182,-149.5 273.182,-143.5 279.182,-137.5 285.182,-137.5"/>
<text text-anchor="middle" x="339.688" y="-208.3" font-family="Times,serif" font-size="14.00">Classification</text>
<polyline fill="none" stroke="black" points="273.182,-201.5 406.193,-201.5 "/>
<text text-anchor="start" x="281.182" y="-186.3" font-family="Times,serif" font-size="14.00">id :INTEGER</text>
<text text-anchor="start" x="281.182" y="-172.3" font-family="Times,serif" font-size="14.00">name :varchar</text>
<text text-anchor="start" x="281.182" y="-158.3" font-family="Times,serif" font-size="14.00">created_at :datetime</text>
<text text-anchor="start" x="281.182" y="-144.3" font-family="Times,serif" font-size="14.00">updated_at :datetime</text>
</g>
<!-- Boat&#45;&gt;Classification -->
<g id="edge2" class="edge"><title>Boat&#45;&gt;Classification</title>
<path fill="none" stroke="#e0c034" d="M315.04,-250.821C317.149,-244.891 319.264,-238.942 321.32,-233.158"/>
<polygon fill="#e0c034" stroke="#e0c034" points="314.977,-250.999 307.387,-258.913 313.302,-255.71 311.627,-260.421 311.627,-260.421 311.627,-260.421 313.302,-255.71 315.867,-261.928 314.977,-250.999 314.977,-250.999"/>
<polygon fill="#e0c034" stroke="#e0c034" points="321.364,-233.034 328.955,-225.119 323.04,-228.323 324.715,-223.612 324.715,-223.612 324.715,-223.612 323.04,-228.323 320.475,-222.104 321.364,-233.034 321.364,-233.034"/>
</g>
<!-- Captain -->
<g id="node4" class="node"><title>Captain</title>
<path fill="none" stroke="black" d="M237.182,-411.5C237.182,-411.5 346.193,-411.5 346.193,-411.5 352.193,-411.5 358.193,-417.5 358.193,-423.5 358.193,-423.5 358.193,-499.5 358.193,-499.5 358.193,-505.5 352.193,-511.5 346.193,-511.5 346.193,-511.5 237.182,-511.5 237.182,-511.5 231.182,-511.5 225.182,-505.5 225.182,-499.5 225.182,-499.5 225.182,-423.5 225.182,-423.5 225.182,-417.5 231.182,-411.5 237.182,-411.5"/>
<text text-anchor="middle" x="291.688" y="-496.3" font-family="Times,serif" font-size="14.00">Captain</text>
<polyline fill="none" stroke="black" points="225.182,-489.5 358.193,-489.5 "/>
<text text-anchor="start" x="233.182" y="-474.3" font-family="Times,serif" font-size="14.00">id :INTEGER</text>
<text text-anchor="start" x="233.182" y="-460.3" font-family="Times,serif" font-size="14.00">name :varchar</text>
<text text-anchor="start" x="233.182" y="-446.3" font-family="Times,serif" font-size="14.00">admiral :boolean</text>
<text text-anchor="start" x="233.182" y="-432.3" font-family="Times,serif" font-size="14.00">created_at :datetime</text>
<text text-anchor="start" x="233.182" y="-418.3" font-family="Times,serif" font-size="14.00">updated_at :datetime</text>
</g>
<!-- Captain&#45;&gt;Boat -->
<g id="edge3" class="edge"><title>Captain&#45;&gt;Boat</title>
<path fill="none" stroke="#0a0c93" d="M291.688,-403.168C291.688,-397.214 291.688,-391.127 291.688,-385.084"/>
<ellipse fill="none" stroke="#0a0c93" cx="291.688" cy="-407.234" rx="4" ry="4"/>
<polygon fill="#0a0c93" stroke="#0a0c93" points="291.688,-384.984 296.188,-374.984 291.688,-379.984 291.688,-374.984 291.688,-374.984 291.688,-374.984 291.688,-379.984 287.188,-374.984 291.688,-384.984 291.688,-384.984"/>
</g>
<!-- Classification&#45;&gt;BoatClassification -->
<g id="edge4" class="edge"><title>Classification&#45;&gt;BoatClassification</title>
<path fill="none" stroke="#2c3477" d="M321.025,-129.732C318.633,-123.354 316.167,-116.778 313.728,-110.274"/>
<ellipse fill="none" stroke="#2c3477" cx="322.433" cy="-133.488" rx="4.00001" ry="4.00001"/>
<polygon fill="#2c3477" stroke="#2c3477" points="313.697,-110.191 314.399,-99.2478 311.941,-105.51 310.186,-100.828 310.186,-100.828 310.186,-100.828 311.941,-105.51 305.972,-102.408 313.697,-110.191 313.697,-110.191"/>
</g>
</g>
</svg>
